

<svg class="img-fluid" id="outputsvg" xmlns="http://www.w3.org/2000/svg" style="transform: matrix(0.769231, 0, 0, 0.769231, 0, 0); transform-origin: 50% 50%; cursor: move; transition: transform 200ms ease-in-out 0s;" width="600" height="350" viewBox="0 0 6000 3500"><g id="lo7IebDSd7ufJ" fill="none" stroke="rgb(253,254,246)" stroke-width="10" style="transform: none;"> <g fill="none">
  <path d="M4840 110C4880 140 4850 195 4810 210C4790 220 4755 220 4740 205C4730 190 4735 175 4720 170C4700 160 4675 175 4665 155C4645 120 4675 80 4705 70C4720 70 4755 60 4770 70C4790 80 4800 110 4835 100C4870 95 4845 40 4860 20C4870 5 4890 10 4900 10C4930 10 5015 -10 5035 15C5055 30 5060 95 5040 115C5015 145 4975 140 4990 200C4995 215 5010 220 5015 235C5025 250 5015 275 5025 285C5040 305 5065 290 5070 315C5075 345 5065 375 5060 405C5060 430 5070 460 5070 490C5070 510 5055 525 5050 545C5045 570 5055 600 5045 625C5035 650 5005 655 4995 680C4980 710 5005 755 4985 785C4970 805 4935 785 4925 805C4895 860 4930 930 4905 985C4890 1020 4840 990 4830 1020C4825 1045 4830 1070 4830 1095C4830 1115 4815 1125 4810 1140C4805 1165 4815 1195 4810 1220C4805 1245 4785 1260 4775 1280C4765 1305 4765 1340 4755 1365C4745 1395 4765 1440 4740 1460C4720 1480 4670 1480 4650 1470C4635 1460 4620 1430 4600 1435C4590 1440 4590 1460 4590 1470C4590 1525 4655 1535 4660 1480M4820 220C4820 260 4840 290 4840 325C4840 355 4830 410 4845 440C4860 455 4880 445 4900 455C4920 470 4905 520 4945 500C4995 480 4940 445 4910 445M4960 360C4990 360 4990 380 4995 405L5055 405M4995 405L4955 450M4845 445C4800 485 4790 580 4870 580M4835 585C4835 615 4825 660 4855 675M4770 910C4695 910 4755 810 4735 760C4725 740 4695 745 4685 725C4675 710 4675 670 4690 660C4705 640 4755 620 4780 640C4805 660 4795 695 4840 670M4745 765L4760 765M4600 1430C4580 1415 4555 1355 4585 1335C4600 1325 4625 1335 4645 1330C4670 1320 4675 1290 4680 1270C4630 1255 4635 1200 4660 1160C4645 1145 4620 1150 4605 1140C4590 1130 4595 1110 4595 1100C4595 1060 4605 1025 4655 1035C4670 1040 4700 1075 4715 1045C4720 1035 4710 1000 4705 995C4690 975 4655 995 4640 975C4635 970 4635 950 4635 940C4635 885 4680 875 4725 900M4660 1160L4700 1155M2930 1730C3010 1680 2980 1815 2975 1845C2970 1860 2970 1880 2960 1890C2945 1900 2900 1900 2890 1880C2880 1845 2900 1750 2930 1730M2975 1895L3005 1900C3000 1925 2995 1960 3005 1985C3010 2000 3025 1995 3035 2010C3050 2020 3045 2045 3045 2060C3040 2105 3025 2150 3020 2195C3020 2215 3030 2255 3015 2275C2995 2305 2945 2330 2930 2370C2900 2450 2925 2525 2860 2585C2840 2610 2795 2590 2770 2610C2755 2620 2760 2640 2750 2650C2725 2700 2710 2755 2650 2755C2650 2785 2660 2825 2645 2850C2645 2860 2615 2905 2610 2910C2590 2925 2565 2920 2545 2940C2535 2950 2535 2965 2520 2975C2495 2990 2460 3000 2440 3020C2425 3030 2435 3055 2415 3060C2385 3075 2335 3065 2305 3065C2285 3065 2250 3070 2230 3060C2205 3050 2230 3005 2215 2985C2205 2970 2180 2980 2165 2970C2155 2960 2155 2945 2145 2935C2135 2920 2105 2900 2090 2895C2040 2870 1965 2935 1910 2910C1885 2900 1895 2850 1880 2825C1865 2810 1840 2820 1825 2805C1810 2795 1815 2765 1805 2750C1785 2720 1750 2685 1720 2665C1705 2650 1680 2655 1660 2645C1650 2635 1650 2620 1635 2615C1620 2610 1595 2620 1585 2605C1565 2580 1595 2530 1570 2495C1555 2475 1525 2495 1510 2480C1495 2470 1500 2450 1485 2445C1470 2435 1440 2445 1435 2425C1410 2380 1450 2305 1450 2255C1445 2230 1410 2235 1410 2205C1410 2165 1430 2165 1440 2135C1455 2085 1455 2035 1465 1985C1465 1965 1455 1925 1470 1910C1485 1890 1530 1905 1550 1890C1585 1870 1580 1820 1635 1835C1650 1840 1650 1860 1650 1875C1650 1935 1625 1935 1590 1975C1580 1985 1575 1995 1580 2010C1590 2030 1640 2035 1655 2015C1670 1990 1660 1955 1645 1935M2930 1900C2920 1950 2895 2000 2890 2045C2890 2070 2915 2105 2905 2125C2880 2185 2825 2230 2790 2280C2725 2370 2650 2500 2640 2610C2630 2680 2590 2695 2650 2755M1570 1970L1570 1985M1580 2025C1580 2045 1585 2070 1575 2090C1570 2110 1545 2100 1535 2115C1520 2130 1520 2245 1540 2260C1580 2285 1575 2220 1590 2210C1600 2200 1640 2200 1645 2215C1655 2230 1650 2250 1645 2265C1635 2275 1620 2275 1615 2290C1595 2330 1600 2475 1675 2450C1695 2445 1695 2390 1680 2380C1665 2370 1630 2375 1610 2375M1580 2260L1615 2280M2980 2315C2995 2325 3010 2330 3020 2340C3065 2415 2980 2455 2925 2405M1675 2460C1680 2525 1740 2480 1775 2505C1795 2520 1785 2545 1800 2560C1825 2580 1855 2560 1875 2575C1905 2595 1890 2685 1890 2715M1805 2575L1800 2600M1895 2665C1920 2665 1975 2660 1990 2680C2010 2700 1995 2730 2005 2755C2010 2775 2080 2795 2100 2800C2135 2800 2110 2745 2130 2730C2140 2720 2165 2730 2175 2710C2180 2685 2155 2635 2185 2625C2260 2605 2330 2720 2255 2765L2280 2835C2325 2805 2355 2815 2405 2820M2330 2805C2330 2780 2325 2730 2345 2715C2365 2695 2415 2710 2435 2715C2495 2720 2545 2695 2605 2695M2180 2725L2255 2765M2290 2750L2325 2785M2280 2835L2280 2855M2225 2985L2365 2985"></path>
 </g>
</g><g id="l5pknSlPd3Hpq" fill="none" stroke="rgb(251,251,249)" stroke-width="10" style="transform: none;"> <g fill="none">
  <path d="M4965 55C5030 -10 5115 10 5200 10C5385 10 5570 5 5755 5L5935 5C5950 5 5985 -10 5990 15C6000 35 5995 60 5995 80L5995 230L5995 765L5995 2670L5995 3260L5995 3415C5995 3435 6000 3465 5990 3485C5970 3515 5870 3500 5835 3500L5355 3500L3360 3500L875 3500L235 3500L70 3500C55 3500 20 3505 10 3495C-5 3485 0 3465 0 3450L0 3325L0 2820L0 760L0 195L0 60C0 45 -5 20 10 10C25 -5 70 5 90 5L310 5L850 5C965 5 1080 -10 1195 15C1215 15 1230 5 1250 5C1310 5 1375 5 1435 5L2050 5L3955 5L4655 5C4760 5 4880 -15 4960 55C4925 85 4885 90 4885 35M4970 50C4995 80 4965 140 4955 175M4990 70L5075 55M1315 905C1360 905 1370 840 1350 805C1340 790 1325 780 1320 765C1315 740 1325 715 1315 690C1305 675 1280 675 1270 660C1260 640 1275 610 1265 590C1255 555 1190 565 1160 555C1135 545 1110 485 1105 460C1095 430 1150 425 1150 395C1155 380 1155 345 1150 335C1135 315 1105 310 1125 275C1135 250 1220 270 1245 255C1275 240 1260 210 1280 190C1330 135 1365 155 1435 155C1455 155 1475 145 1495 145C1555 155 1600 195 1650 220C1670 225 1725 215 1720 255C1715 270 1670 280 1655 290L1650 225M1725 245C1750 250 1790 260 1805 285C1835 335 1800 370 1870 400C1925 420 1940 360 1980 375C2045 405 2015 435 2035 485C2045 515 2095 555 2120 575C2165 605 2210 560 2250 580C2285 600 2345 650 2365 680C2375 700 2370 720 2385 735C2400 755 2430 745 2450 760C2540 835 2620 930 2700 1015C2790 1115 2870 1220 2960 1325C2970 1340 2995 1340 3005 1355C3025 1380 2985 1455 3030 1465C3140 1485 3045 1365 3100 1335C3130 1315 3165 1350 3200 1330C3240 1305 3265 1255 3305 1225C3325 1215 3350 1220 3365 1200C3385 1165 3380 1105 3405 1075C3420 1055 3450 1050 3465 1035C3545 950 3625 865 3710 785C3735 760 3765 765 3785 745C3805 735 3800 705 3810 690C3830 660 3935 555 3965 600C4030 585 4115 570 4145 495C4160 465 4130 425 4155 405C4205 355 4270 430 4320 395C4365 365 4330 320 4355 285C4380 260 4430 250 4460 235C4550 195 4640 145 4740 165C4785 180 4795 230 4815 255C4830 275 4865 275 4885 295C4920 345 4905 420 4910 475C4910 505 4955 515 4935 550C4905 610 4820 560 4770 585C4755 590 4755 630 4770 640C4785 650 4810 650 4830 650C4850 650 4865 660 4885 660M4285 300L4340 295M4895 305L4910 305M4870 670C4850 715 4870 740 4870 780C4865 825 4810 895 4780 925C4755 900 4730 825 4755 795C4775 770 4840 785 4860 800M4865 795C4890 825 4905 955 4855 970C4825 975 4790 935 4765 950C4730 970 4750 1015 4725 1035C4715 1050 4685 1035 4675 1055C4665 1075 4665 1135 4675 1145C4690 1165 4720 1145 4720 1185C4715 1230 4695 1245 4670 1280C4665 1295 4665 1310 4650 1320C4635 1330 4610 1315 4595 1335C4570 1365 4615 1405 4590 1440C4525 1525 4400 1525 4300 1525C4270 1525 4195 1520 4170 1540C4150 1555 4165 1610 4185 1615C4225 1630 4265 1575 4310 1600C4355 1625 4315 1675 4345 1700C4365 1720 4400 1720 4415 1740C4430 1750 4435 1770 4450 1785C4470 1800 4495 1800 4510 1815C4545 1840 4575 1880 4615 1900C4625 1860 4610 1850 4570 1850M1350 900C1360 910 1380 920 1385 935C1400 970 1370 1005 1380 1040C1390 1060 1415 1050 1425 1065C1450 1090 1445 1160 1415 1175M4780 925L4780 940M1430 1170C1460 1190 1480 1200 1470 1245C1465 1265 1440 1270 1450 1295C1475 1350 1555 1300 1535 1375L1570 1365M3125 1320C3125 1280 3115 1250 3165 1250M1535 1375C1515 1430 1550 1460 1595 1480C1670 1515 1765 1520 1850 1520C1875 1520 1945 1515 1955 1545C1960 1565 1935 1630 1920 1640C1900 1650 1870 1640 1845 1650C1800 1660 1760 1695 1725 1725C1705 1750 1715 1780 1700 1805C1685 1820 1665 1815 1650 1825C1630 1840 1630 1900 1630 1925C1630 1960 1675 1980 1655 2020C1650 2040 1570 2045 1545 2065C1520 2080 1525 2115 1505 2140M1505 1390L1525 1385M4600 1775L4615 1850M4620 1905C4635 1945 4640 1990 4620 2030C4610 2055 4580 2100 4610 2130C4625 2145 4645 2110 4645 2095C4650 2075 4635 2060 4620 2045M3055 2040C3030 2070 2990 2120 2985 2160C2980 2185 3000 2220 2985 2245C2980 2255 2960 2255 2955 2265C2905 2305 2840 2350 2825 2415C2815 2455 2900 2450 2870 2500C2840 2550 2815 2515 2775 2530C2755 2535 2715 2570 2700 2585C2660 2625 2615 2655 2585 2705C2570 2730 2560 2775 2530 2780C2500 2785 2480 2750 2445 2755C2425 2760 2410 2785 2385 2775C2355 2760 2345 2705 2320 2685C2305 2670 2240 2665 2220 2670C2190 2680 2195 2710 2180 2730C2165 2745 2140 2745 2130 2760C2120 2770 2125 2795 2115 2805C2105 2815 2090 2820 2080 2825C2065 2835 2060 2850 2045 2855C2005 2875 1975 2845 1940 2830L1935 2835L1935 2840L1935 2845L1935 2850M3025 2095C3075 2165 2995 2280 3035 2355C3040 2370 3090 2380 3105 2395C3095 2410 3085 2425 3070 2435C3060 2445 3045 2445 3040 2455C3015 2500 3055 2565 3035 2610C3025 2645 2965 2610 2965 2655C2970 2700 3020 2670 3020 2635M3155 2545C3160 2605 3155 2625 3100 2650C3095 2625 3085 2575 3105 2560C3130 2530 3165 2540 3160 2490C3155 2455 3130 2425 3120 2390C3120 2370 3140 2355 3135 2335C3130 2315 3110 2310 3105 2295C3095 2270 3105 2240 3105 2215C3110 2195 3100 2140 3120 2125C3145 2110 3170 2130 3185 2145C3220 2185 3260 2240 3280 2290C3315 2365 3375 2470 3435 2530C3465 2560 3510 2580 3535 2615C3575 2670 3545 2745 3615 2785C3665 2810 3755 2705 3810 2755C3860 2810 3795 2845 3750 2845M1530 2130L1585 2125C1590 2145 1600 2195 1580 2210C1560 2225 1510 2200 1515 2245C1520 2280 1570 2255 1585 2275C1605 2290 1595 2330 1600 2355C1610 2380 1625 2395 1625 2425M4610 2135C4590 2150 4570 2150 4550 2160C4535 2165 4535 2205 4545 2215C4570 2245 4620 2205 4625 2265C4630 2310 4590 2310 4580 2340C4560 2415 4570 2485 4535 2555C4515 2535 4490 2515 4505 2485L4545 2525M4625 2135C4640 2165 4640 2210 4625 2240M2995 2255L3030 2255M3100 2300C3085 2335 3090 2360 3115 2385M4625 2305C4640 2340 4625 2365 4590 2375M4630 2365C4660 2420 4625 2485 4565 2490M1625 2375C1645 2375 1675 2370 1690 2380C1725 2405 1685 2475 1675 2500M4505 2480C4535 2460 4520 2430 4565 2430M2785 2520L2815 2440M1695 2475C1720 2490 1755 2480 1780 2495C1805 2515 1795 2565 1795 2590M4530 2475L4550 2490M4500 2500L4540 2540M4495 2515C4480 2530 4470 2545 4450 2550C4430 2550 4395 2540 4380 2560C4355 2595 4380 2655 4325 2680C4305 2690 4280 2705 4260 2705C4235 2705 4205 2700 4180 2710C4165 2715 4170 2745 4155 2755C4135 2760 4115 2750 4095 2755C4065 2765 4055 2800 4050 2830M1800 2560C1820 2560 1850 2550 1870 2560C1915 2575 1900 2645 1895 2680C1915 2680 1955 2670 1970 2690C2005 2725 1955 2785 1915 2775M3025 2630C3050 2655 3075 2690 3105 2700C3160 2720 3170 2675 3145 2635M3090 2655L3080 2680M3025 2675L3025 2720M3035 2690L3075 2690M4270 2715L4265 2775M2370 2735L2430 2755M4155 2760L4155 2810M3810 2840C3835 2855 3850 2850 3875 2855C3900 2865 3905 2900 3940 2870C3960 2855 3945 2825 3955 2805C3970 2760 4025 2770 4055 2795M1925 2790L1935 2825M1990 2800L2065 2830"></path>
 </g>
</g><g id="l3QLoaA0SKH0v" fill="none" stroke="rgb(241,132,11)" stroke-width="10" style="transform: none;"> <g fill="none">
  <path d="M1840 1825C1815 1810 1810 1755 1825 1730C1850 1685 1935 1630 1985 1615C2070 1580 2180 1600 2270 1595C2300 1595 2295 1560 2325 1555C2415 1540 2505 1570 2595 1560C2660 1550 2710 1525 2775 1525C2790 1525 2820 1520 2830 1530C2845 1540 2850 1560 2860 1575C2870 1570 2880 1565 2890 1565C2965 1560 2920 1610 2935 1655C2940 1675 2965 1670 2975 1685C3000 1715 2985 1780 3025 1800C3015 1835 3010 1880 3015 1915C3020 1950 3035 1975 3030 2015C3010 2085 2945 2135 2950 2210M3315 1710C3335 1675 3305 1585 3335 1560C3355 1540 3440 1555 3470 1555C3565 1560 3645 1570 3740 1565C3790 1565 3855 1545 3900 1560C3940 1570 3900 1635 3940 1645C3990 1650 4055 1630 4100 1650C4130 1660 4135 1705 4170 1715C4190 1715 4205 1695 4225 1695C4265 1690 4255 1710 4280 1730C4300 1745 4325 1735 4335 1765C4355 1815 4330 1840 4280 1835C4260 1830 4240 1815 4220 1810C4170 1805 4115 1815 4065 1815C4045 1815 4005 1800 3990 1815C3970 1830 3985 1865 3970 1885C3950 1910 3910 1880 3890 1900C3865 1920 3870 1970 3850 1990C3830 2010 3795 1995 3780 2010C3765 2020 3775 2045 3755 2050C3735 2060 3705 2045 3695 2065C3660 2130 3775 2120 3735 2185C3715 2215 3645 2175 3630 2205C3600 2270 3700 2350 3710 2400C3715 2435 3675 2465 3690 2490C3715 2535 3775 2480 3770 2555C3770 2575 3750 2585 3755 2605C3755 2640 3785 2680 3765 2720C3760 2735 3740 2735 3725 2740C3690 2760 3655 2795 3610 2770C3530 2725 3515 2650 3485 2570C3450 2480 3410 2390 3345 2315C3330 2295 3295 2300 3280 2280C3240 2240 3230 2180 3195 2135C3175 2115 3145 2115 3140 2085C3130 2025 3155 1950 3165 1895C3170 1870 3170 1840 3185 1820C3190 1805 3215 1800 3225 1780C3235 1765 3235 1715 3255 1705C3300 1695 3305 1720 3330 1740C3355 1755 3385 1765 3410 1780M2860 1575C2860 1610 2850 1625 2825 1650M4115 1790L4115 1810M1825 1820C1735 1885 1675 1930 1690 2050C1695 2080 1715 2095 1715 2130C1715 2145 1715 2165 1705 2175C1690 2200 1650 2200 1675 2245C1685 2265 1720 2250 1740 2260C1750 2265 1745 2280 1760 2290C1785 2310 1795 2295 1805 2330C1825 2325 1870 2310 1885 2330C1915 2360 1875 2420 1895 2460C1920 2505 2000 2470 2020 2440C2030 2425 2025 2405 2030 2390M2450 2070C2450 2100 2445 2135 2430 2160C2420 2175 2400 2180 2395 2195C2385 2225 2395 2250 2375 2275C2345 2310 2290 2335 2275 2375C2260 2425 2235 2515 2305 2515C2310 2565 2255 2595 2275 2645C2295 2695 2330 2680 2370 2700C2390 2710 2405 2735 2425 2750C2450 2765 2570 2770 2590 2745C2690 2655 2705 2495 2770 2380C2805 2325 2850 2280 2890 2225C2905 2205 2925 2185 2925 2155M3155 2115C3130 2145 3120 2185 3110 2225M1970 2485C1970 2520 2010 2545 2040 2515C2060 2500 2050 2460 2035 2440C2055 2425 2085 2430 2100 2415C2115 2400 2100 2375 2120 2360C2155 2330 2210 2315 2250 2285C2295 2255 2325 2150 2395 2185M2935 2180L2945 2180M2250 2290L2280 2340M2200 2315C2225 2365 2200 2385 2270 2385"></path>
 </g>
</g><g id="l5mzh4mOsQulN" fill="none" stroke="rgb(240,122,15)" stroke-width="10" style="transform: none;"> <g fill="none">
  <path d="M1825 1860C1825 1815 1860 1805 1890 1830C1870 1860 1850 1850 1830 1875C1815 1890 1810 1910 1785 1910C1760 1915 1750 1875 1720 1895C1710 1905 1705 1945 1725 1945C1740 1945 1755 1925 1765 1915M2190 1950L2180 1960C2215 1955 2255 1945 2280 1920C2315 1885 2310 1855 2370 1840M1755 1880C1755 1840 1785 1845 1820 1845M2345 2705L2345 2670C2275 2675 2280 2620 2220 2595C2175 2580 2105 2615 2060 2590C2045 2585 2010 2555 2000 2540C1990 2520 1990 2490 1975 2480C1950 2465 1900 2465 1870 2450C1855 2445 1865 2425 1850 2420C1835 2410 1815 2420 1805 2405C1785 2385 1805 2340 1785 2315C1775 2300 1750 2310 1740 2300C1690 2265 1640 2190 1665 2125C1675 2095 1690 2055 1725 2050C1750 2050 1775 2060 1800 2050C1815 2045 1820 2020 1835 2010C1860 1995 1880 2005 1905 2000C1940 1995 1965 1970 2000 1970C2040 1975 2045 2035 2090 2020C2120 2010 2130 1980 2145 1960C2185 1915 2245 1870 2305 1870M2245 1890L2275 1925M2195 1925L2215 1950M2170 1940L2180 1950M1720 1950C1715 1995 1670 2010 1685 2065M2045 1965L2030 1980M2200 1965C2200 2010 2240 2065 2295 2065C2320 2065 2335 2030 2360 2035C2375 2040 2380 2055 2390 2060C2405 2070 2420 2060 2425 2075C2440 2100 2420 2125 2415 2145C2385 2225 2275 2300 2350 2380C2380 2345 2375 2315 2325 2315M1720 1980L1730 2045M2260 2015L2255 2040M1810 2050L1820 2060M2355 2375C2375 2400 2380 2430 2380 2460L2375 2465L2345 2435L2265 2510M2345 2380C2320 2405 2300 2415 2300 2450M2365 2405L2345 2435M2310 2410L2340 2440M2330 2455C2370 2500 2325 2545 2345 2595C2370 2660 2400 2565 2405 2540M2355 2475L2370 2465M2130 2525L2130 2585M2370 2625L2345 2665"></path>
 </g>
</g><g id="laplMsSmaMnUq" fill="none" stroke="rgb(238,110,15)" stroke-width="10" style="transform: none;"> <g fill="none">
  <path d="M1960 1145L1680 1155C1675 1105 1625 1135 1600 1110C1585 1100 1590 1085 1585 1070C1560 1025 1545 955 1590 910C1605 890 1640 890 1660 870C1625 840 1575 805 1550 770C1495 695 1625 645 1675 635C1730 625 1830 635 1885 650C1930 665 1970 695 2015 710C2035 715 2055 695 2075 695C2105 695 2120 710 2150 715C2205 720 2265 710 2315 735C2330 740 2340 755 2355 765C2370 775 2390 770 2395 785C2410 810 2390 835 2400 860C2410 895 2485 865 2455 930C2445 955 2405 945 2395 980C2390 1005 2415 1045 2390 1065C2360 1100 2310 1065 2310 1030M2035 720L2055 815M2390 870C2370 940 2295 855 2350 845C2360 845 2375 845 2385 845M1660 870L1775 885M2305 1070C2305 1120 2285 1115 2240 1125M2300 1120C2335 1145 2380 1135 2420 1150C2460 1170 2495 1200 2525 1220C2540 1230 2555 1225 2565 1235C2580 1245 2580 1270 2595 1280C2610 1290 2630 1280 2640 1290C2650 1300 2650 1310 2660 1320C2670 1330 2685 1325 2690 1340C2695 1360 2690 1390 2675 1400C2655 1410 2625 1405 2605 1410C2550 1415 2490 1425 2435 1435C2350 1445 2275 1420 2190 1415C2075 1405 1940 1440 1830 1415C1800 1405 1790 1375 1765 1365C1735 1350 1725 1390 1705 1400C1680 1405 1645 1370 1630 1355L1670 1305C1700 1320 1755 1315 1760 1355M1680 1155C1655 1170 1625 1165 1605 1185C1550 1225 1575 1300 1610 1340L1665 1300M1760 1330C1780 1300 1805 1310 1835 1300C1870 1290 1905 1270 1940 1260M1610 1345L1630 1355M1790 1390C1765 1415 1740 1420 1710 1400"></path>
 </g>
</g><g id="l16oI6HTeIiCW" fill="none" stroke="rgb(225,119,10)" stroke-width="10" style="transform: none;"> <g fill="none">
  <path d="M2910 1565C2915 1550 2920 1525 2930 1520C2975 1495 3020 1555 2980 1580C2965 1590 2940 1580 2925 1575C2885 1555 2845 1555 2805 1550C2785 1655 2675 1580 2635 1540L2630 1540L2625 1545L2625 1550L2670 1595L2665 1600C2650 1600 2635 1610 2620 1605C2590 1595 2585 1565 2610 1550L2650 1600M3265 1670C3240 1660 3225 1615 3245 1595C3255 1580 3275 1590 3290 1580C3305 1570 3295 1550 3310 1540C3345 1505 3410 1535 3435 1565C3485 1530 3490 1575 3535 1585C3580 1595 3635 1580 3680 1580M1790 1530C1855 1530 1870 1550 1915 1595L1915 1600L1910 1605L1905 1610L1875 1580C1830 1665 1975 1665 1905 1600M2385 1655C2400 1700 2345 1715 2310 1725C2200 1745 2095 1760 1985 1775C1955 1785 1880 1810 1860 1775C1850 1755 1875 1735 1890 1720C1935 1685 1990 1665 2035 1625C2050 1615 2065 1605 2070 1585C2070 1570 2065 1550 2080 1540C2090 1530 2150 1530 2160 1540C2175 1550 2165 1565 2175 1575C2185 1590 2225 1605 2245 1605C2290 1605 2275 1570 2300 1550C2335 1525 2400 1590 2420 1610C2370 1660 2320 1655 2270 1605M2640 1540L2800 1545M2390 1570C2405 1560 2415 1545 2435 1545C2455 1545 2465 1565 2450 1580C2445 1590 2425 1595 2415 1600M2615 1545L2625 1545M1885 1550L1960 1550L1935 1620M2705 1550L2705 1590M1970 1555L2040 1615M3930 1620C3925 1545 3960 1560 4020 1560M3925 1605L3880 1605L3870 1570C3890 1560 3910 1560 3930 1570M1875 1565L1875 1580M3435 1565C3435 1590 3425 1605 3400 1605M4005 1565C4005 1645 4130 1655 4195 1655C4225 1655 4240 1635 4270 1665C4285 1680 4275 1700 4285 1715C4310 1755 4375 1755 4345 1820C4335 1845 4300 1825 4285 1840C4270 1850 4280 1880 4280 1895C4310 1895 4345 1880 4375 1885C4410 1895 4380 1960 4360 1975C4345 1995 4315 1975 4300 1990C4280 2005 4295 2030 4270 2040C4220 2065 4170 2015 4125 2060C4115 2070 4120 2120 4120 2140M2360 1570L2300 1630M3855 1570L3870 1570M2375 1575L2315 1635M3510 1575C3500 1585 3460 1595 3455 1605C3445 1650 3515 1630 3530 1620C3595 1690 3700 1680 3785 1655C3820 1645 3855 1650 3875 1610M2390 1580L2330 1640M2400 1590L2350 1645M2960 1590C2960 1620 2965 1640 2935 1655M3530 1590L3530 1620M2275 1600L2325 1595M2670 1595L2680 1595M2410 1600L2365 1650M2215 1605C2175 1640 2095 1645 2055 1610M3440 1605L3450 1605M2615 1610C2570 1645 2465 1650 2420 1615M2425 1625L2390 1660M1885 1650C1850 1685 1810 1710 1810 1765L1850 1765M2950 1650C3010 1700 2960 1745 2960 1810C2960 1850 2970 1900 2960 1940C2950 1970 2925 1985 2915 2015C2870 2120 2820 2220 2775 2325C2755 2370 2720 2425 2715 2475C2710 2500 2740 2525 2765 2520M1920 1655L1940 1680M3245 1675C3235 1695 3240 1720 3230 1745C3195 1815 3110 1895 3185 1970L3160 1995L3145 1945M2990 1740C3035 1800 3045 1900 3045 1975C3045 2000 3045 2055 3005 2050C2985 2050 2970 1980 2955 1965M2305 2545L2290 2585L2245 2580C2240 2525 2265 2505 2290 2460C2305 2440 2300 2410 2315 2390C2345 2350 2390 2325 2415 2290C2425 2275 2425 2255 2435 2240C2450 2210 2480 2185 2495 2155C2515 2115 2525 2065 2550 2025C2570 1995 2605 1970 2635 1945C2685 1910 2730 1865 2775 1825C2800 1805 2840 1765 2865 1755C2895 1745 2930 1760 2960 1760M1815 1770C1815 1835 1770 1830 1735 1870C1725 1885 1725 1900 1715 1915C1710 1925 1700 1925 1695 1935C1685 1950 1690 1970 1690 1985C1675 2045 1650 2090 1700 2140L1715 2125L1675 2090M3190 1820C3235 1875 3225 1970 3250 2035C3320 2190 3400 2345 3460 2505C3480 2560 3475 2615 3495 2670C3505 2700 3530 2740 3550 2770C3585 2840 3610 2785 3655 2770C3725 2755 3800 2755 3780 2655M2600 1885L2670 1915M2855 1900L2720 2095L2695 2165L2670 2140L2665 2140C2645 2170 2645 2185 2670 2210L2665 2215L2660 2220L2630 2195C2585 2250 2550 2315 2515 2380C2490 2425 2465 2470 2440 2515C2425 2540 2410 2570 2395 2595C2380 2620 2350 2650 2345 2675C2345 2705 2385 2720 2405 2705C2445 2665 2445 2620 2465 2575C2500 2495 2550 2415 2595 2340C2615 2295 2655 2260 2615 2220M4285 1900L4290 1980M2680 1910L2745 1940M4210 2005C4220 1955 4220 1920 4275 1910M3215 1920L3185 1965M1720 2125C1795 2060 1915 2025 2010 1995C2045 1980 2090 1960 2125 1980C2095 2025 2060 2075 2015 2105C1965 2135 1920 2145 1880 2190L1910 2215L1915 2210L1890 2180M3160 1995C3155 2025 3130 2040 3120 2065C3115 2085 3125 2125 3155 2115C3195 2100 3180 2045 3160 2020M4175 2020L4175 2030M3785 2690C3865 2745 3905 2655 3865 2585C3855 2565 3815 2585 3810 2555C3800 2480 3865 2445 3845 2370C3835 2330 3780 2300 3790 2255C3795 2240 3815 2240 3830 2235C3880 2210 3945 2255 3945 2165C3965 2165 4000 2170 4010 2155C4035 2135 4060 2015 4115 2055M1670 2095L1705 2130M1705 2100L1725 2115M1660 2115L1675 2170L1700 2145M2670 2140L2705 2115M3140 2120L3125 2150M3155 2120C3245 2215 3280 2360 3380 2445M3885 2140L3945 2165M1925 2205C1970 2180 2020 2155 2070 2145C2090 2145 2120 2140 2125 2165C2130 2195 2085 2240 2070 2265C2035 2315 2010 2400 1970 2440C1950 2455 1920 2455 1900 2475C1885 2450 1900 2440 1925 2440M2660 2155L2685 2180L2690 2175L2695 2170M2650 2170L2675 2195L2680 2190L2685 2185M1675 2175C1700 2205 1690 2215 1665 2240C1660 2215 1660 2195 1675 2175M2640 2180L2630 2190M1905 2185L1910 2190M1875 2210L1860 2205L1865 2195L1870 2190L1875 2190L1880 2190M2645 2200L2650 2205M2675 2200L2670 2205M1905 2215C1880 2240 1825 2245 1860 2205M2625 2205L2645 2245M1705 2215C1715 2255 1680 2285 1665 2240M1880 2220L1890 2230M2660 2225L2655 2230M3935 2230L3965 2280M3880 2235L3840 2240M3965 2265L3975 2265M1950 2455C1950 2525 1980 2595 2060 2605C2105 2610 2160 2590 2200 2620C2180 2655 2200 2750 2250 2695C2270 2680 2250 2660 2255 2640C2260 2620 2280 2605 2295 2590M3840 2455L3870 2510M1900 2480L1945 2495M2710 2490C2690 2530 2695 2575 2685 2615C2675 2665 2630 2725 2595 2755C2560 2785 2535 2750 2500 2750C2485 2750 2460 2760 2450 2755C2440 2750 2440 2735 2440 2725L2425 2725L2420 2720L2415 2715L2410 2710M2755 2530L2700 2560M1960 2555C1915 2590 1935 2690 2000 2650C2015 2640 2010 2605 2020 2590M3795 2565L3800 2565M2680 2575L2545 2705L2545 2760M2115 2580L2115 2595M2240 2585L2200 2620M2300 2600C2305 2630 2320 2645 2345 2665M2215 2615L2245 2635M2455 2645L2545 2705M2265 2685L2340 2705M2495 2685L2440 2725M3625 2800L3700 2830"></path>
 </g>
</g><g id="lVAQgtgqBlwpC" fill="none" stroke="rgb(222,101,17)" stroke-width="10" style="transform: none;"> <g fill="none">
  <path d="M4245 495C4255 550 4310 525 4345 545C4370 560 4345 605 4370 615C4415 640 4485 610 4530 620C4560 630 4585 665 4605 685C4625 710 4630 770 4610 795C4590 815 4540 835 4550 870C4565 910 4590 940 4600 985C4610 1060 4550 1145 4475 1155M1880 540C1950 480 1950 605 1880 540M4245 515C4210 555 4165 600 4115 615M1945 560C1975 575 2030 655 1965 650C1930 645 1905 625 1875 620C1860 615 1835 620 1825 605C1780 565 1850 540 1880 540M1815 605C1715 660 1590 570 1520 700C1510 715 1510 735 1510 755C1510 780 1480 835 1515 845C1570 870 1545 770 1540 750M4145 610C4155 625 4175 675 4145 685C4070 705 3990 660 3915 685C3870 695 3825 740 3790 770C3700 840 3620 900 3540 980C3505 1015 3470 1055 3435 1090C3425 1105 3410 1125 3390 1130C3375 1135 3370 1120 3360 1110C3330 1125 3285 1155 3280 1190C3280 1215 3295 1225 3285 1250C3255 1305 3160 1360 3180 1430C3185 1445 3200 1445 3205 1455C3220 1480 3195 1535 3225 1545C3245 1550 3265 1545 3285 1545C3345 1555 3445 1580 3505 1555C3540 1545 3540 1495 3575 1490C3675 1480 3775 1485 3875 1480C3960 1475 4040 1450 4125 1450C4245 1445 4405 1465 4515 1420C4610 1380 4590 1210 4535 1150M1990 650C2020 690 2055 675 2100 670C2165 665 2230 660 2290 690C2340 715 2380 760 2425 795C2530 875 2625 960 2720 1050C2765 1090 2820 1085 2860 1135C2880 1160 2860 1185 2875 1210C2900 1255 2945 1255 2975 1285C3005 1315 3005 1425 2990 1460C2980 1475 2965 1470 2950 1480C2930 1490 2890 1510 2870 1525L2900 1600L2965 1660L2960 1720L2985 1780C3070 1755 3065 1865 3025 1910C2995 1875 2985 1825 2985 1780M1435 775L1490 790M1555 820L1655 870M1485 845L1495 845M1545 850C1565 870 1580 880 1605 860M1570 875C1565 920 1530 945 1520 980C1505 1040 1570 1105 1605 1150L1545 1200C1545 1230 1535 1265 1540 1295C1580 1465 1745 1435 1880 1435C2035 1435 2195 1455 2350 1470C2415 1475 2515 1465 2575 1490C2585 1495 2590 1505 2600 1510C2660 1545 2805 1475 2820 1580C2825 1620 2750 1605 2725 1610C2630 1630 2510 1665 2415 1635C2395 1625 2370 1615 2355 1600C2340 1580 2330 1550 2305 1545C2285 1545 2275 1560 2260 1570C2240 1580 2215 1575 2195 1580C2135 1585 2065 1575 2005 1585C1975 1590 1950 1615 1920 1615C1905 1615 1890 1605 1875 1605C1855 1600 1800 1630 1790 1645C1775 1665 1795 1690 1800 1705C1810 1730 1810 1790 1790 1815C1770 1845 1725 1855 1705 1890C1660 1950 1670 2035 1655 2100C1645 2135 1625 2160 1630 2200C1640 2230 1670 2290 1695 2310C1715 2325 1755 2315 1765 2340C1775 2355 1780 2390 1770 2405C1755 2425 1720 2445 1745 2475C1765 2500 1810 2475 1830 2475C1850 2475 1870 2485 1890 2490C1955 2510 1975 2585 2040 2610C2090 2630 2155 2605 2205 2615C2265 2630 2265 2715 2340 2715C2340 2675 2320 2665 2300 2635C2295 2620 2295 2605 2280 2595C2270 2575 2245 2575 2245 2550C2255 2440 2340 2385 2390 2300C2400 2285 2395 2265 2405 2250C2425 2215 2455 2180 2470 2140C2475 2120 2460 2095 2470 2080C2485 2050 2530 2020 2555 2000C2605 1965 2650 1920 2700 1885C2760 1840 2815 1790 2870 1740C2900 1720 2925 1690 2960 1715M3385 1035L3365 1105M2785 1045L2795 1085M1605 1150L1680 1145M1535 1255C1520 1255 1490 1260 1480 1250C1435 1215 1500 1165 1540 1195M2945 1275L2980 1325M2795 1535L2870 1525M3310 1555L3260 1665L3220 1710L3245 1755C3300 1700 3360 1785 3405 1825C3525 1930 3685 2045 3740 2200C3745 2225 3760 2275 3755 2300C3745 2345 3710 2350 3740 2400L3790 2375L3810 2395L3845 2510M3370 1565C3370 1595 3380 1615 3410 1625C3480 1650 3570 1660 3645 1675C3675 1680 3715 1695 3745 1690C3770 1690 3835 1660 3855 1645C3870 1630 3880 1605 3900 1595C3915 1590 3975 1615 3995 1620C4090 1630 4205 1625 4290 1685C4315 1700 4360 1750 4370 1785C4375 1810 4355 1835 4370 1860C4380 1875 4395 1875 4410 1885C4425 1905 4440 1930 4450 1950C4475 1995 4465 2050 4470 2100C4485 2160 4520 2205 4510 2270C4505 2295 4475 2340 4450 2350C4435 2360 4405 2350 4395 2365C4365 2400 4385 2460 4355 2500C4325 2535 4260 2530 4220 2550C4210 2555 4205 2575 4195 2585C4180 2610 4155 2635 4130 2650C4100 2670 4035 2655 4000 2655L3995 2660C4000 2680 4010 2730 3985 2740C3950 2755 3940 2725 3915 2725C3835 2715 3765 2745 3715 2805C3700 2790 3625 2755 3635 2810C3640 2850 3705 2825 3720 2805M3870 1580L3895 1590M3245 1755C3200 1830 3165 1900 3155 1990M3205 1830C3235 1860 3240 1885 3245 1930M3025 1910L3025 1945M3400 2030L3605 2370L3675 2430L3645 2475C3635 2450 3630 2435 3650 2410M2760 2040L2555 2360L2520 2390L2520 2465L2490 2440L2485 2445L2485 2450L2515 2480C2495 2495 2465 2490 2455 2505C2435 2525 2450 2550 2450 2570C2455 2595 2435 2610 2435 2635C2430 2650 2445 2660 2445 2675C2445 2700 2400 2685 2415 2725C2425 2750 2440 2780 2460 2795C2500 2825 2530 2790 2520 2855M3710 2055L3685 2080M2490 2075L2475 2105M3375 2300L3475 2520L3510 2610L3475 2660L3510 2680L3520 2630M3760 2315L3785 2360M3645 2395C3670 2370 3680 2320 3720 2340M2550 2385L2540 2430M3750 2405L3805 2430M2505 2410L2535 2445M2500 2420L2530 2455M2500 2425L2490 2435M2730 2435L2660 2620L2580 2725L2525 2810M2505 2445L2510 2450M3690 2445C3700 2480 3695 2495 3670 2520L3645 2480M2480 2455L2505 2485M3690 2455L3655 2490M2480 2460L2470 2495M2520 2470L2515 2475M3700 2475L3665 2510M4385 2475C4395 2475 4405 2475 4415 2475C4480 2495 4365 2600 4360 2515M2330 2495L2285 2590M3710 2495L3670 2525M3705 2500L3790 2660M2490 2510L2455 2550M3710 2510L3675 2535M2255 2530L2295 2570M3680 2545C3700 2560 3710 2560 3730 2550M2445 2610C2425 2590 2410 2570 2440 2555M3700 2570L3715 2610L3750 2585M2410 2585L2440 2620M2405 2595L2435 2630M2400 2605L2430 2640M2395 2615L2420 2685M3720 2620C3730 2640 3750 2675 3740 2700C3710 2750 3595 2700 3630 2795M2390 2625L2420 2660M2390 2630L2345 2670M2385 2640L2415 2670M3445 2640L3470 2660M3525 2650C3545 2665 3600 2715 3585 2745C3560 2790 3520 2705 3515 2685M3925 2720C3935 2685 3950 2660 3990 2655M2450 2690C2495 2720 2490 2750 2455 2785M2350 2715L2405 2715M2495 2730L2575 2735M3680 2770L3705 2740L3715 2750L3720 2755L3710 2755M3595 2745L3610 2755M3720 2760L3735 2775M3720 2805L3740 2815M3715 2830C3715 2860 3710 2890 3745 2895M3660 2835C3660 2875 3670 2920 3715 2885"></path>
 </g>
</g><g id="l6MONiwWybe5g" fill="none" stroke="rgb(46,41,36)" stroke-width="10" style="transform: none;"> <g fill="none">
  <path d="M1950 1555C1860 1560 1780 1545 1690 1535C1630 1530 1565 1525 1515 1485C1485 1460 1475 1420 1460 1385C1430 1320 1400 1270 1380 1200C1355 1100 1315 1005 1285 905C1265 825 1245 745 1200 675C1170 625 1125 575 1090 525C1040 440 1015 350 1010 250C1005 180 1000 100 1080 65C1125 45 1240 30 1285 50C1305 55 1310 75 1325 85C1345 95 1390 100 1415 100C1555 110 1680 170 1805 235C2135 400 2390 645 2650 905C2705 960 2780 1020 2815 1090C2830 1125 2810 1155 2815 1190C2820 1225 2885 1300 2920 1305C3040 1320 3000 1155 3105 1125C3160 1110 3165 1165 3190 1200C3200 1215 3210 1240 3230 1235C3270 1220 3300 1160 3325 1130C3385 1055 3455 985 3525 915C3770 670 4015 410 4330 255C4475 180 4660 70 4825 80C4885 85 4935 80 4985 120C5040 165 5025 235 5020 295C5020 320 5025 350 5025 375C5010 475 4955 590 4910 680C4885 730 4850 780 4835 835C4825 865 4830 900 4820 930C4805 975 4775 1015 4760 1060C4720 1215 4715 1410 4570 1515C4520 1555 4465 1535 4410 1530C4380 1525 4350 1535 4320 1535C4300 1535 4255 1535 4240 1545C4160 1595 4275 1610 4300 1630C4270 1660 4245 1665 4230 1615M1310 60C1340 45 1355 60 1375 80M4520 380C4445 355 4420 375 4360 430C4400 465 4460 495 4515 505C4540 510 4575 495 4580 465C4585 420 4495 435 4530 370C4540 350 4575 355 4595 355C4655 355 4720 365 4770 400C4755 420 4705 430 4695 450C4690 465 4690 515 4700 525C4710 540 4765 530 4755 560C4740 590 4665 580 4695 530M4770 400L4855 390M4525 425L4485 480M4330 430L4360 430M1715 575C1715 535 1735 540 1760 520C1775 505 1760 475 1780 470C1820 450 1820 570 1825 590C1830 605 1850 620 1840 635C1830 650 1750 655 1740 635C1725 620 1730 595 1715 575L1660 610L1640 650L1595 665L1530 740M1825 560C1850 560 1915 565 1930 545C1950 530 1935 495 1945 475C1960 440 2030 490 2050 505C2120 570 2030 605 1990 640C1965 655 1965 705 1985 725C2030 765 2045 680 2080 670C2110 665 2130 685 2155 690C2200 695 2250 685 2295 695C2315 705 2310 730 2325 745C2335 755 2350 750 2360 765C2375 775 2365 795 2380 805C2400 815 2425 810 2445 825C2460 845 2455 875 2475 885C2520 910 2570 890 2600 860M4130 615C4070 555 4125 470 4205 475C4255 480 4210 540 4240 560C4270 585 4290 550 4310 540C4330 530 4350 540 4370 535C4395 525 4420 500 4440 485M1775 525L1810 525M4710 535L4710 570M4685 575C4670 590 4650 595 4635 610C4625 620 4625 635 4615 645C4605 660 4585 655 4580 670C4570 710 4620 750 4605 790C4590 820 4540 780 4535 825C4535 850 4545 860 4555 880C4560 900 4550 930 4550 950C4550 970 4565 985 4565 1005C4560 1020 4550 1030 4545 1045C4535 1070 4545 1095 4540 1120C4530 1170 4500 1230 4580 1230M4120 610C4105 625 4105 660 4090 670C4070 680 4005 695 3985 695C3965 695 3945 680 3925 690C3890 700 3875 745 3840 760C3820 770 3795 760 3780 770C3765 780 3775 805 3765 820C3760 830 3740 850 3730 855C3690 895 3625 930 3590 970C3575 980 3575 1000 3565 1015C3540 1045 3500 1080 3465 1105C3455 1120 3425 1110 3415 1125C3400 1145 3415 1175 3395 1200C3375 1220 3345 1255 3315 1270C3280 1285 3250 1280 3230 1320C3225 1335 3225 1405 3245 1410C3260 1415 3285 1380 3295 1370M1545 735C1570 760 1620 790 1630 825C1630 850 1610 855 1605 870C1595 890 1600 915 1595 935C1580 970 1545 995 1550 1035C1555 1055 1575 1050 1590 1060C1605 1075 1650 1120 1650 1145C1650 1175 1625 1190 1610 1215C1580 1260 1575 1310 1610 1355C1650 1410 1725 1410 1785 1410C1925 1410 2050 1410 2190 1425C2220 1430 2280 1425 2310 1440C2320 1450 2320 1465 2330 1475C2350 1495 2370 1505 2355 1540C2350 1565 2330 1570 2310 1585C2235 1645 2125 1600 2035 1615C2000 1620 1955 1650 1920 1665C1885 1680 1830 1730 1830 1770C1830 1790 1855 1815 1845 1835C1835 1850 1815 1850 1800 1860C1775 1875 1745 1900 1730 1925C1710 1950 1695 2015 1700 2045C1705 2060 1720 2070 1720 2090C1715 2125 1675 2135 1670 2170C1665 2230 1685 2260 1735 2285C1750 2290 1765 2290 1775 2300C1800 2330 1785 2375 1805 2405C1825 2440 1935 2490 1975 2470C1995 2455 2005 2410 2020 2390M2570 900C2570 925 2575 970 2600 980C2615 990 2635 980 2645 995C2655 1005 2645 1025 2655 1035C2685 1080 2735 1065 2765 1035M2745 1045L2755 1045M2735 1065C2765 1100 2785 1125 2830 1140M2835 1140C2890 1170 2955 1230 2970 1295M4550 1230C4550 1290 4530 1370 4485 1415C4470 1430 4450 1420 4430 1430C4405 1440 4425 1500 4425 1520M3020 1270C3020 1305 3010 1305 2980 1305M2965 1310C2965 1360 2960 1460 2915 1490C2880 1510 2820 1500 2780 1505C2760 1505 2735 1515 2740 1540C2745 1565 2795 1550 2810 1565C2825 1575 2830 1595 2840 1610C2860 1625 2885 1630 2905 1650C2915 1660 2910 1675 2920 1685C2940 1710 2955 1725 2965 1755C3025 1890 3005 2025 3000 2165C2995 2265 3005 2370 3005 2470C3005 2525 2985 2705 3095 2665C3130 2650 3135 2570 3135 2535C3135 2415 3130 2290 3140 2170C3145 2125 3185 2080 3165 2035C3145 1980 3110 2035 3105 2065M2960 1415L3025 1430M3155 1450L3230 1415M3255 1415C3265 1435 3265 1460 3285 1475C3315 1495 3370 1490 3390 1515C3425 1545 3385 1570 3355 1560L3345 1570C3360 1620 3335 1625 3305 1660C3290 1680 3280 1705 3265 1725C3250 1740 3250 1765 3230 1770C3195 1780 3140 1745 3110 1770C3095 1780 3100 1820 3100 1840M3280 1480L3195 1540M3860 1665L3995 1640L4010 1590L4000 1545C4030 1535 4030 1510 4050 1500C4075 1485 4100 1505 4120 1510C4175 1520 4190 1500 4235 1540M4120 1515C4140 1555 4170 1565 4205 1580M3890 1640C3900 1605 3870 1590 3875 1565C3880 1535 3980 1545 4000 1545M4140 1555L4155 1570M1865 1575C1825 1630 1740 1660 1685 1705C1605 1775 1550 1875 1510 1975C1500 2010 1505 2050 1500 2085C1495 2145 1485 2225 1505 2285C1515 2315 1540 2340 1555 2365C1590 2420 1620 2485 1665 2535C1690 2560 1730 2575 1760 2600C1810 2640 1840 2700 1890 2735C1960 2795 2045 2815 2130 2845C2180 2865 2220 2890 2275 2900C2340 2915 2445 2900 2500 2865C2520 2855 2555 2825 2550 2795C2545 2775 2500 2790 2485 2790C2470 2785 2460 2765 2450 2755L2525 2685M4305 1630C4325 1655 4350 1655 4375 1670C4425 1705 4495 1755 4530 1800C4590 1885 4610 1985 4615 2085C4620 2130 4630 2170 4625 2215C4625 2235 4615 2255 4610 2275C4610 2300 4620 2315 4615 2340C4605 2385 4575 2415 4560 2450C4540 2485 4530 2525 4510 2555C4495 2540 4470 2535 4455 2520C4440 2505 4450 2485 4440 2465C4430 2450 4340 2445 4325 2465C4315 2480 4320 2505 4310 2525C4290 2515 4240 2505 4225 2525C4210 2540 4205 2580 4185 2595C4130 2625 4070 2610 4015 2625C4000 2630 3995 2650 3980 2655C3960 2660 3940 2650 3920 2660C3900 2670 3915 2710 3890 2720C3845 2740 3795 2665 3760 2680C3710 2700 3715 2785 3775 2785M4005 1650L4105 1660L4250 1695L4250 1680L4250 1665M4320 1655L4275 1665M4255 1700C4285 1745 4325 1805 4380 1805M3230 1780L3200 1855L3180 1945L3145 2005M4340 1805C4290 1895 4370 1920 4450 1920M3225 1825L3250 1890M4420 1925C4420 1980 4435 1990 4465 2035C4475 2045 4465 2060 4475 2070C4490 2090 4525 2095 4535 2120C4540 2140 4535 2200 4525 2220C4515 2235 4495 2235 4485 2255C4480 2275 4480 2315 4495 2330C4510 2335 4525 2335 4535 2345C4555 2375 4545 2405 4575 2435M4470 2075C4460 2080 4440 2085 4435 2095C4390 2150 4490 2185 4525 2185M3160 2125L3230 2235L3375 2460M2885 2270C2885 2390 2765 2525 2680 2600C2655 2620 2645 2645 2615 2660L2615 2665L2645 2695L2555 2790M4535 2405L4535 2430L4455 2425L4440 2460M4535 2430L4550 2440M1985 2475C1985 2525 2020 2525 2045 2555C2055 2565 2060 2585 2070 2590C2090 2600 2130 2590 2150 2585C2175 2580 2205 2560 2230 2570C2270 2585 2245 2630 2265 2655C2280 2675 2310 2670 2330 2680C2350 2690 2365 2720 2380 2735C2375 2740 2370 2745 2370 2750C2345 2840 2485 2715 2400 2730C2395 2730 2385 2735 2380 2735M3455 2490L3515 2645L3555 2685L3530 2725L3530 2730L3565 2705M4510 2555C4500 2625 4375 2670 4325 2715C4310 2730 4305 2755 4290 2770C4260 2795 4215 2825 4180 2845C4135 2875 4065 2880 4015 2890C3965 2905 3920 2930 3870 2935C3730 2950 3585 2865 3535 2735M2675 2575L2675 2590M2655 2645L2645 2690M2350 2680C2405 2645 2415 2665 2420 2725M3520 2660C3505 2685 3515 2705 3530 2730M2615 2665L2590 2720M2610 2675L2635 2700M3565 2705L3610 2745L3615 2745L3635 2725L3660 2750L3610 2770C3640 2825 3695 2810 3740 2785M3610 2745L3610 2760M3690 2795C3670 2760 3680 2745 3720 2745M3660 2750L3675 2750M2430 2755L2450 2755M3570 2760L3570 2770L3570 2760M3580 2765L3565 2790M3590 2770L3610 2770M3595 2775L3570 2800M3615 2790L3590 2815M3590 2795L3610 2815L3605 2820L3590 2795"></path>
 </g>
</g><g id="l1w3FbOQo6iqc" fill="none" stroke="rgb(44,40,28)" stroke-width="10" style="transform: none;"> <g fill="none">
  <path d="M1260 55C1280 65 1325 90 1330 115C1340 155 1285 165 1260 180C1245 185 1245 210 1235 225C1205 250 1165 245 1130 245C1100 245 1030 285 1030 230C1030 205 1100 155 1125 170C1145 185 1140 220 1140 240M4540 200C4525 225 4520 245 4535 270C4560 245 4565 230 4545 200C4580 155 4685 120 4745 145C4770 155 4765 190 4800 185C4845 180 4835 125 4860 100C4900 55 5000 125 5010 165C5045 280 5005 405 4970 510C4930 625 4870 730 4830 840C4820 870 4830 900 4820 930C4805 975 4770 1005 4755 1050C4740 1095 4750 1150 4740 1195C4725 1270 4685 1365 4645 1430C4590 1520 4515 1525 4425 1525M1340 115C1375 115 1380 145 1405 155C1440 165 1460 150 1495 145C1510 145 1535 140 1540 160C1565 255 1470 225 1425 245C1405 255 1390 310 1345 280C1330 265 1345 240 1360 230C1380 220 1405 230 1420 240M1135 180L1105 200M1070 200L1090 220L1095 215L1100 210M1555 715C1535 715 1480 735 1520 760C1550 780 1575 740 1555 715C1580 690 1615 675 1635 650C1655 630 1660 595 1680 580C1695 565 1720 570 1735 560C1805 530 1785 485 1740 450C1730 460 1715 475 1700 475C1640 485 1620 380 1660 350C1675 335 1690 340 1710 345C1725 345 1735 350 1745 355C1790 295 1705 290 1705 240C1705 210 1730 200 1755 215C1795 235 1825 275 1860 305L1835 335C1860 355 1900 385 1935 385C1995 385 1940 320 1920 305M1090 220L1095 235M1520 240L1580 275L1575 285L1570 290L1565 295L1560 300M1680 335L1640 270C1660 250 1675 240 1700 240M1035 255C985 330 1060 320 1085 370C1100 405 1045 415 1065 460C1080 485 1095 485 1115 500C1130 510 1135 530 1145 545C1165 575 1200 585 1200 625L1205 630L1235 600L1235 595L1200 585M1580 275L1640 270M4535 270C4545 300 4580 280 4605 275M1825 290L1835 335M4545 290L4395 395M1825 325L1780 380L1780 385L1790 390L1840 340M1750 355L1780 380M4480 355C4570 415 4690 325 4780 400C4700 480 4585 410 4495 460C4470 470 4435 465 4425 495C4400 560 4440 560 4485 570C4500 575 4510 590 4525 595C4550 600 4575 595 4600 595C4630 600 4680 615 4695 575C4720 520 4635 475 4590 480C4535 490 4520 540 4500 575M1975 360L2045 385L2070 440L2135 480M5000 425C4930 425 4960 385 5010 375M1780 385L1740 450M1795 390L1815 410L1790 435L1785 430L1780 425L1775 420L1770 415M1955 395C1955 410 1950 435 1960 445C1985 480 2055 495 2070 450M4780 400L4800 400M4415 505C4400 505 4380 510 4370 495C4360 485 4360 445 4375 440C4395 435 4420 465 4430 475M4595 445L4595 475M4725 445L4735 495C4760 485 4810 495 4785 535C4775 550 4730 560 4710 570M1955 450C1945 465 1940 495 1925 505C1900 520 1860 515 1840 540C1815 565 1835 605 1820 635C1795 675 1680 645 1655 625M2120 470C2105 485 2085 500 2090 525M1855 475L1885 505M2065 480L2080 515M1690 485L1680 570M1700 485L1775 520M4735 495L4705 525M4735 510L4745 540M1790 520L1830 550M4500 590C4500 615 4495 640 4515 660C4535 680 4575 680 4585 710C4590 750 4570 755 4560 790C4555 815 4560 840 4550 870C4540 895 4525 925 4545 945C4555 960 4580 955 4595 960L4530 1080L4500 1130L4525 1175L4540 1230L4605 1290L4575 1325L4565 1370L4490 1460C4465 1410 4495 1360 4550 1390M1235 595C1250 620 1240 635 1220 655C1270 700 1295 800 1295 865C1325 865 1345 860 1370 840L1390 860L1390 865L1365 850M4695 595L4695 610M1200 635L1215 655M1570 760C1605 785 1630 815 1665 835C1680 840 1700 850 1700 870C1700 910 1605 905 1580 905C1575 810 1520 915 1495 920C1465 925 1440 900 1410 910C1425 955 1450 990 1490 940C1520 960 1535 935 1515 910M1295 820C1330 795 1360 795 1370 840M1610 800L1560 860M1385 845L1390 850M1370 865L1375 870M1290 870L1305 925L1410 910M1385 875L1390 905M1580 905L1540 940M1365 920C1360 955 1340 950 1320 930M1490 925L1490 940M1540 940C1540 990 1565 1005 1575 1045C1580 1065 1565 1090 1585 1105C1610 1125 1710 1100 1720 1145C1725 1185 1660 1175 1640 1190C1615 1200 1590 1260 1555 1245C1535 1235 1535 1200 1515 1195C1500 1190 1480 1210 1465 1195C1420 1155 1505 1120 1465 1070M1365 950L1360 1065L1410 1100L1445 1145M1475 1215L1490 1280L1550 1250M1490 1280C1455 1310 1460 1330 1470 1370M4495 1510C4495 1470 4520 1460 4555 1455M4490 1465L4500 1475M3845 1565C3870 1565 3910 1560 3935 1575C3975 1595 3995 1645 4045 1640C4065 1635 4100 1610 4105 1590C4110 1560 4095 1520 4150 1545C4180 1555 4195 1620 4225 1640C4245 1655 4270 1670 4290 1675C4320 1680 4340 1660 4370 1675C4400 1690 4440 1720 4460 1745C4480 1770 4490 1800 4520 1815C4535 1820 4560 1805 4580 1810M3960 1590C4000 1550 4035 1555 4090 1555M4170 1585C4140 1625 4120 1655 4065 1640M3960 1595L3900 1645M4110 1595L4135 1620M4310 1610L4335 1655M4135 1640C4170 1690 4210 1700 4255 1655M4265 1675C4260 1695 4245 1695 4225 1695M4265 1705C4285 1735 4310 1760 4325 1795C4345 1840 4350 1875 4380 1920C4390 1935 4400 1955 4415 1965C4430 1975 4450 1970 4455 1985C4470 2015 4450 2055 4465 2085C4475 2110 4530 2095 4530 2130C4530 2160 4495 2145 4485 2165C4465 2200 4485 2250 4465 2290C4445 2315 4410 2315 4395 2335C4370 2365 4395 2410 4430 2415M4515 1740C4520 1760 4515 1775 4500 1790M4530 1825C4550 1860 4575 1885 4590 1925C4625 2015 4625 2120 4625 2215C4625 2255 4630 2300 4620 2340C4590 2410 4545 2470 4495 2520C4480 2535 4505 2625 4445 2600C4430 2590 4430 2580 4410 2575C4395 2535 4345 2570 4320 2585C4345 2645 4375 2615 4410 2575M4470 2305L4545 2320M4405 2410L4295 2485L4260 2530L4160 2560L4140 2610L4075 2630L4035 2655L3940 2620L3880 2695L3830 2705L3790 2755L3675 2760M4265 2530C4285 2555 4285 2580 4320 2585M4435 2605C4420 2625 4395 2650 4370 2630M4145 2615C4165 2625 4195 2615 4210 2630C4230 2645 4210 2670 4230 2685C4270 2720 4385 2710 4390 2645M4160 2630C4160 2650 4155 2690 4165 2710C4185 2735 4220 2715 4225 2690M3720 2755C3740 2725 3750 2635 3795 2690C3800 2700 3810 2705 3815 2715M4165 2715L4120 2735M4210 2720C4255 2775 4190 2805 4185 2730M3700 2770C3730 2810 3705 2865 3655 2865M3795 2770L3755 2870C3780 2870 3815 2865 3840 2875C3860 2890 3850 2920 3880 2925C3910 2930 3940 2905 3970 2900C4050 2880 4175 2875 4215 2795M3720 2845L3745 2845M3755 2870C3725 2895 3705 2900 3680 2870M3830 2925L3850 2920"></path>
 </g>
</g><g id="l7CvroBvkdN9j" fill="none" stroke="rgb(42,29,23)" stroke-width="10" style="transform: none;"> <g fill="none">
  <path d="M1280 445C1345 435 1330 515 1290 495C1280 485 1280 465 1275 450C1255 375 1295 325 1305 255C1310 225 1275 185 1315 170C1335 160 1365 170 1385 170C1435 175 1560 155 1600 195C1615 215 1610 240 1620 265C1635 295 1690 345 1720 350C1785 360 1745 275 1740 245M4635 175C4610 190 4570 205 4550 230C4540 240 4540 255 4530 265C4520 280 4485 305 4515 325C4550 350 4555 290 4540 270M4580 215C4645 265 4710 175 4770 250L4820 235M4770 255C4800 355 4640 265 4650 335C4650 370 4715 360 4735 375C4785 425 4845 495 4800 570C4790 585 4760 585 4750 605C4740 620 4750 635 4740 650C4730 665 4700 660 4685 665C4690 685 4680 725 4700 740C4750 795 4800 715 4800 670M1800 270C1800 300 1800 330 1765 335M1620 275C1595 325 1630 380 1680 340M1520 300L1600 285M4560 300C4595 295 4620 310 4645 330M4780 295C4820 335 4830 380 4885 330M4790 295L4820 335M4815 305L4820 310M1285 330L1365 325M4385 500C4370 485 4345 465 4340 440C4335 415 4335 305 4390 330C4400 335 4405 360 4415 370C4380 420 4415 475 4375 520C4365 530 4320 560 4305 565C4275 575 4230 565 4210 590C4160 650 4245 640 4225 690C4220 710 4170 750 4145 745C4125 740 4110 720 4090 715C4050 705 4015 710 3980 680C3920 740 3830 810 3755 850C3730 860 3695 850 3670 865C3645 890 3645 925 3625 950C3585 1015 3505 1090 3425 1100C3430 1005 3565 910 3650 885M4505 325C4475 365 4510 405 4555 400C4585 395 4620 365 4645 345M1790 330C1840 385 1800 435 1810 495C1815 520 1850 510 1850 535C1850 555 1825 560 1820 580C1820 600 1890 640 1855 655C1830 665 1795 650 1770 650C1715 645 1675 650 1620 660C1595 665 1570 650 1555 675C1510 745 1610 795 1655 830C1670 840 1715 845 1705 870C1695 915 1630 885 1605 915C1580 935 1590 960 1550 970L1545 975C1560 1005 1555 1030 1525 1045L1545 1090L1565 1085M1760 340C1775 360 1780 370 1765 390L1745 355M4415 370L4485 355M4730 365C4755 350 4785 355 4815 360M4810 360C4810 390 4810 410 4790 435M1640 365C1640 390 1635 430 1650 450C1700 500 1765 445 1765 390M4525 400C4495 455 4485 490 4410 465M4580 405C4610 455 4715 450 4760 425M4225 570C4225 545 4240 515 4235 490C4230 475 4215 460 4220 445C4225 430 4270 430 4280 445C4295 455 4285 480 4295 495C4300 510 4315 525 4330 535M4180 525L4140 480L4210 455M4145 680C4115 660 4070 650 4050 625C4005 575 4105 505 4140 480M1290 510L1345 620L1420 640L1540 675M4385 515L4410 560M4320 540L4295 565M4075 550C4105 595 4140 600 4190 615M4315 570C4335 595 4300 645 4320 660C4330 665 4355 655 4370 655C4410 650 4460 650 4500 655C4535 660 4550 700 4580 715C4600 725 4610 705 4620 690C4595 680 4585 690 4570 705M4115 600L4105 625L4100 630L4095 625L4095 615M4725 615L4740 610M4095 625L4080 640M1310 795L1355 750C1330 720 1305 665 1335 630M4045 630C4020 650 3990 645 3980 680M3695 850C3720 815 3730 775 3770 740C3790 730 3810 735 3830 720C3875 680 3915 620 3980 670M4190 645L4175 660M1445 660C1440 675 1425 740 1440 745C1475 755 1505 695 1520 675M4620 690C4640 670 4660 660 4685 670M3755 680L3795 720M1500 705L1535 740L1475 735M4620 705L4685 745M4590 725C4590 790 4505 800 4485 855C4480 870 4480 880 4490 890C4505 905 4525 905 4535 920C4560 960 4560 1015 4585 1050L4635 1035L4640 1030L4620 925L4590 875L4670 745M1355 750L1425 750M1455 755C1470 790 1510 800 1525 835C1540 870 1490 960 1545 975M4750 890L4710 975L4675 1000L4640 1030M1410 935L1515 970M4640 965L4675 990M4725 965L4765 980M1485 975C1485 1010 1485 1040 1525 1045M1560 1040C1590 1050 1650 1105 1635 1140C1620 1175 1580 1185 1570 1225C1550 1295 1590 1365 1650 1405C1680 1420 1720 1415 1750 1415C1820 1415 1885 1420 1955 1420C2055 1420 2160 1440 2260 1445C2280 1450 2295 1435 2315 1435C2350 1435 2390 1440 2425 1445C2480 1450 2540 1470 2595 1475L2600 1480C2585 1495 2535 1530 2535 1555C2540 1590 2585 1580 2605 1580C2675 1565 2765 1560 2825 1525L2795 1490L2800 1485L2840 1485L2830 1525M4585 1050C4575 1080 4585 1120 4610 1135M4545 1420C4500 1460 4440 1455 4385 1470C4365 1405 4400 1415 4450 1400C4465 1395 4490 1380 4505 1385C4520 1385 4535 1405 4545 1415C4560 1375 4530 1375 4525 1345C4520 1300 4555 1275 4535 1225C4520 1200 4495 1180 4465 1175C4450 1175 4425 1180 4415 1165C4410 1160 4410 1140 4420 1130C4435 1115 4465 1120 4485 1115C4515 1100 4540 1070 4575 1060M1540 1095L1580 1185M3420 1105C3410 1130 3390 1140 3380 1160C3340 1240 3295 1350 3205 1385C3185 1320 3230 1295 3260 1250C3270 1235 3275 1200 3295 1195C3315 1185 3340 1200 3355 1205M1645 1125C1665 1125 1715 1115 1730 1130C1750 1145 1735 1170 1720 1175C1690 1180 1650 1180 1625 1160M4585 1130C4585 1215 4650 1315 4565 1385M1595 1185L1645 1185M3240 1320L3210 1330M4515 1360L4510 1370M4515 1370L4550 1405M2280 1450C2300 1485 2345 1560 2275 1560M2845 1480C2870 1480 2930 1460 2950 1475C2970 1490 2950 1510 2940 1520C2910 1540 2875 1530 2845 1525M2600 1480L2795 1490M2320 1520L2345 1520M2310 1560C2335 1580 2390 1585 2420 1570C2465 1555 2480 1510 2530 1550"></path>
 </g>
</g><g id="laUlOXOEcrDj4" fill="none" stroke="rgb(46,24,13)" stroke-width="10" style="transform: none;"> <g fill="none">
  <path d="M4395 370C4350 350 4350 410 4350 440L4355 445C4395 430 4395 410 4395 370C4450 365 4490 330 4540 325C4590 320 4645 345 4695 350C4730 355 4800 355 4800 400C4805 460 4705 445 4710 495C4710 540 4825 500 4785 575L4735 525M4485 350L4545 480L4540 540L4605 610L4565 655L4570 660L4575 665L4590 645M4265 395C4230 415 4190 420 4155 440C4140 450 4140 470 4130 480C4090 525 4040 565 4090 620L4205 565L4270 475C4300 530 4390 590 4405 490C4410 475 4395 455 4395 440M1945 440C1935 480 1935 490 1890 490C1890 425 1955 410 2010 440C2045 460 2080 510 2105 545L2145 505M4060 435L4120 485M4355 445C4360 480 4380 480 4405 500M4530 460L4475 490L4485 590L4525 585M4555 485L4695 485M1885 495C1870 520 1840 505 1820 520C1790 545 1770 595 1735 615C1680 640 1630 620 1575 660C1555 675 1520 695 1505 710C1480 735 1495 770 1455 780M1940 495C1940 550 1975 575 2025 585C2060 590 2105 590 2105 545M4420 495L4465 495M4725 525C4725 560 4740 590 4780 575M1800 545C1815 575 1795 620 1830 635M4375 560L4375 605C4450 605 4495 630 4565 655M4720 565C4700 590 4670 600 4655 625C4625 670 4655 725 4685 755M2105 585C2105 645 2155 635 2190 665C2145 710 2095 695 2040 715L2020 655L2105 620M4485 590L4470 605M4150 605L4205 630M4375 605L4345 635M4610 610L4620 620L4600 640M1750 615C1770 630 1780 635 1805 625M4090 620L4005 680C4030 705 4115 705 4120 735C4130 765 4080 820 4065 845C3995 950 3875 1030 3780 1110C3820 1165 3915 1150 3975 1150C4070 1155 4165 1175 4260 1175C4325 1175 4420 1160 4480 1180C4525 1195 4555 1240 4545 1290C4540 1310 4525 1330 4525 1350C4525 1365 4550 1380 4565 1375C4645 1355 4595 1225 4580 1180C4580 1165 4580 1130 4565 1120C4555 1110 4535 1120 4525 1125M4620 620L4645 635M4575 635L4580 640M2590 910C2590 930 2585 950 2560 945C2535 935 2510 910 2490 895C2425 850 2370 805 2310 755C2290 740 2240 715 2230 685C2220 640 2310 665 2325 680C2335 690 2340 705 2350 715C2410 770 2490 810 2555 860C2585 880 2605 915 2630 940C2635 920 2625 910 2605 905M3215 1445C3250 1450 3270 1465 3295 1490L3260 1525C3170 1425 3180 1280 3300 1205C3340 1180 3395 1180 3435 1150C3520 1085 3585 985 3665 915C3755 835 3870 775 3955 690L3955 685L3950 685L3900 670C3930 645 3970 675 4005 680M2195 665L2225 680M4580 665L4645 695M3375 1165C3355 1095 3440 1035 3485 995C3520 965 3560 940 3590 910C3605 895 3610 870 3625 860C3645 840 3675 840 3690 825C3755 770 3825 715 3895 665M3965 675L3955 685M4655 700C4675 710 4700 720 4690 745M2040 715C2040 755 2065 790 2090 825C2145 910 2235 965 2310 1030C2345 1060 2385 1085 2405 1125C2350 1155 2265 1135 2205 1135C2065 1140 1920 1165 1780 1175C1735 1180 1700 1160 1655 1160C1635 1160 1610 1170 1590 1155C1570 1135 1570 1105 1555 1080C1540 1055 1515 1040 1505 1015C1500 1005 1500 990 1505 980C1520 955 1545 920 1565 905C1585 890 1615 890 1615 860C1615 840 1580 780 1555 810C1540 825 1550 885 1560 905M4705 730L4740 735M4645 735L4525 860L4590 985L4565 1110M1475 775C1500 800 1515 800 1550 795M3700 825L3735 860M1470 885L1530 940M1455 935L1510 965M2640 945C2635 985 2665 1000 2690 1025C2735 1070 2775 1120 2820 1165C2845 1190 2860 1225 2895 1195L2840 1180M2580 950L2630 970M3805 1145C3780 1155 3770 1145 3755 1125L3760 1120L3765 1115L3770 1115L3775 1110M3735 1140L3750 1170L3750 1175L3745 1180L3720 1145L3740 1130L3780 1160M2410 1135L2595 1235L2690 1280M3715 1145C3700 1165 3700 1180 3725 1190L3710 1155M3745 1150L3770 1165M3250 1450L3385 1370L3550 1270L3645 1210L3695 1165M1590 1170C1585 1195 1570 1220 1565 1245C1560 1305 1605 1375 1655 1405C1680 1415 1710 1410 1735 1410C1815 1420 1895 1415 1975 1415C2130 1415 2280 1455 2435 1465C2480 1465 2535 1445 2585 1445C2675 1445 2765 1445 2855 1445C2895 1445 2940 1450 2970 1415C2990 1385 2960 1360 2940 1345C2895 1305 2845 1260 2840 1200M3370 1185C3340 1265 3275 1340 3215 1400M3715 1190C3695 1205 3685 1210 3660 1200M2895 1200C2925 1250 3010 1305 2970 1365M4520 1360C4430 1445 4275 1405 4160 1415C4135 1420 4120 1440 4095 1445C4035 1455 4000 1450 3955 1495C3905 1445 3800 1440 3740 1485C3720 1500 3635 1520 3670 1560C3690 1590 3740 1560 3760 1550C3790 1535 3855 1535 3885 1555C3845 1595 3785 1610 3740 1570M4550 1380C4550 1425 4515 1445 4475 1455C4400 1480 4295 1470 4215 1470C4175 1470 4145 1475 4115 1445M2915 1440C2920 1405 2940 1395 2970 1415M2970 1425C2965 1475 2955 1495 2910 1520L2920 1530L2925 1535L2930 1540L2935 1545M3920 1450L3985 1455M2665 1450C2665 1470 2680 1500 2675 1520C2670 1535 2655 1535 2645 1545C2585 1590 2530 1570 2460 1570C2455 1490 2395 1580 2370 1575C2355 1570 2335 1550 2355 1535C2370 1525 2390 1530 2405 1530M2880 1450L2890 1515L2895 1520L2900 1520L2905 1520L2910 1520M3655 1530C3585 1510 3540 1555 3480 1500C3495 1485 3505 1470 3525 1465C3545 1455 3575 1460 3595 1460C3645 1460 3710 1440 3750 1470M2460 1470L2560 1520L2555 1570M2795 1490C2825 1515 2850 1510 2885 1520M3220 1490L3250 1525M3295 1490C3345 1490 3410 1480 3455 1505C3485 1525 3490 1590 3535 1595C3565 1595 3560 1560 3560 1540M3950 1495L3885 1550M3470 1500L3480 1500M2565 1520C2595 1520 2615 1520 2640 1540M2665 1540C2710 1580 2770 1540 2815 1515M3175 1535L3240 1525M3665 1565C3635 1590 3600 1600 3560 1590M2460 1570L2405 1575M3540 1600L3540 1620M3925 1625C4025 1640 4125 1660 4225 1675C4255 1680 4285 1660 4315 1680C4400 1740 4365 1815 4400 1895C4420 1940 4470 1975 4485 2020C4500 2050 4480 2085 4495 2115C4510 2155 4555 2200 4530 2255C4520 2275 4490 2255 4470 2265C4450 2285 4450 2310 4435 2330C4410 2355 4375 2385 4345 2405M4240 1685C4265 1725 4315 1755 4330 1800C4345 1835 4305 1840 4305 1865C4300 1900 4375 1900 4395 1905M3390 1785C3450 1845 3520 1895 3585 1950C3620 1985 3660 2030 3705 2050C3735 2065 3775 2070 3805 2080C3865 2110 3930 2145 3995 2155C4035 2160 4075 2120 4110 2135C4225 2175 4310 2270 4400 2350M4050 1810L4295 1865M4455 1990L4435 2080L4405 2115L4455 2170L4480 2255M4150 2010L4400 2105M3710 2065C3715 2120 3760 2165 3775 2220C3785 2260 3785 2315 3805 2350C3820 2375 3855 2385 3875 2405C3905 2440 3935 2520 3940 2565C3950 2645 3875 2665 3830 2710C3820 2720 3815 2740 3830 2745C3845 2755 3915 2750 3925 2735C3945 2715 3940 2685 3970 2675C4025 2655 4090 2695 4145 2665C4160 2655 4165 2630 4175 2615C4190 2590 4250 2570 4195 2545M4510 2270C4510 2320 4480 2385 4420 2345M4390 2365C4485 2475 4275 2520 4225 2565"></path>
 </g>
</g><g id="l2mSwjBarlvcr" fill="none" stroke="rgb(26,27,22)" stroke-width="10" style="transform: none;"> <g fill="none">
  <path d="M4715 190C4705 180 4695 170 4685 160C4645 105 4765 95 4735 165C4730 175 4720 180 4715 190M4100 395L4135 460C4115 465 4055 455 4070 420C4085 390 4150 360 4180 345C4290 280 4405 215 4525 165C4565 145 4630 105 4675 130M4685 130L4730 160M4730 175L4785 230M4320 470C4365 450 4385 390 4400 345C4410 330 4405 310 4415 300C4455 260 4485 290 4520 280C4550 265 4555 225 4585 210C4620 195 4670 205 4710 190M4140 460L4225 415L4275 440M4050 430L4085 465M4050 435C4030 465 4065 485 4085 505L4090 505L4060 470M4380 435C4415 480 4370 505 4330 475M4215 440C4225 455 4235 460 4255 460C4255 485 4255 535 4285 545C4305 555 4330 550 4350 560C4370 570 4375 595 4395 605C4420 620 4470 600 4490 585C4530 555 4480 500 4545 480M2140 450C2150 460 2160 465 2165 475C2205 530 2090 545 2090 600C2010 605 2080 695 2140 650L2090 600M4265 450L4255 460M4085 505C4075 530 4005 585 3975 550C3950 520 4005 475 4030 465M4115 470L4090 495M2005 475C2055 485 2080 510 2115 545M2180 490C2220 495 2225 530 2255 550C2280 570 2310 585 2340 610C2425 685 2515 765 2590 850C2605 865 2605 890 2625 910C2640 925 2665 930 2680 945C2700 965 2700 985 2715 1005C2750 1050 2835 1080 2845 1145L2865 1170C2895 1180 2955 1245 2965 1280C2970 1300 2950 1320 2955 1340C2965 1365 3000 1410 2995 1435C2990 1455 2965 1480 2950 1495M4390 490L4500 490M3970 565C3945 600 3975 635 3955 665C3935 690 3905 690 3880 705C3825 745 3780 795 3725 835C3705 850 3675 860 3655 875C3545 965 3475 1095 3345 1155C3340 1095 3415 1035 3455 995C3535 915 3610 825 3695 750C3725 725 3770 710 3795 685C3850 630 3880 530 3970 530M2150 545L2190 605L2250 555M4070 550C4075 625 4105 600 4155 625C4130 670 4135 690 4180 715M4510 585L4575 655C4620 615 4655 660 4655 710M4685 585L4700 630L4650 670M4465 600C4485 630 4510 640 4540 615M2190 605C2185 630 2170 645 2145 655M4390 605L4370 625M4565 615L4600 625M2085 665C2035 715 1975 660 2035 620M2190 630C2230 675 2285 695 2330 730C2370 760 2400 805 2445 825C2460 835 2480 835 2495 845C2540 870 2555 910 2610 910M4615 630L4575 660M4700 630L4725 635M2000 680L1965 640L2005 655M3975 650C4020 670 4085 710 4135 685M4640 660C4620 675 4610 680 4585 665M2595 860L2560 895M2635 925C2635 985 2660 980 2700 1015C2725 1035 2755 1070 2770 1100L2800 1080M2755 1030L2730 1055M2770 1060L2760 1070M3080 1095C3095 1115 3120 1150 3095 1175C3090 1185 3075 1185 3065 1195C3050 1210 3055 1235 3030 1240C3005 1245 2970 1210 2950 1195M2800 1110L2805 1115L2800 1110M2775 1110L2800 1115M2790 1130L2885 1240L2915 1220M2830 1140L2845 1155L2840 1160L2830 1140M3110 1145C3140 1145 3190 1175 3185 1215C3180 1235 3155 1260 3140 1275M3345 1155C3330 1225 3270 1310 3215 1355L3200 1335M2850 1165L2865 1180L2860 1185L2850 1165M3225 1345C3175 1275 3265 1190 3335 1180M2885 1190L2865 1210M3340 1195L3395 1255M2905 1205L2880 1230M3190 1220L3210 1260M2890 1250C2905 1280 2920 1300 2950 1315M3030 1250C3030 1290 3025 1325 3050 1360L3000 1420M2975 1305L3025 1320M3200 1305L3210 1320M3205 1315L3195 1325M3165 1355L3195 1375C3200 1420 3195 1475 3205 1520C3220 1560 3245 1585 3230 1625L3230 1630L3235 1630L3240 1630L3245 1630M3215 1355L3200 1370M3000 1445C3025 1480 3025 1525 3035 1570C3035 1585 3030 1605 3045 1615C3055 1630 3075 1655 3090 1660C3130 1665 3145 1615 3130 1590L3075 1645M3120 1445C3120 1500 3110 1535 3135 1585M3115 1555L3065 1625M3140 1620C3195 1650 3245 1720 3200 1785C3190 1805 3150 1810 3145 1830C3135 1875 3175 1970 3110 1990C3110 2020 3105 2035 3075 2035C3085 2065 3115 2070 3120 2095C3125 2110 3115 2130 3115 2145C3115 2230 3110 2300 3065 2375M3200 1655L3225 1635M3075 1655C3050 1685 3060 1730 3065 1770C3065 1795 3060 1820 3060 1845C3070 1885 3105 1920 3135 1945M3090 1925C3060 1965 3035 1990 3075 2035M3080 1945L3110 1990M3110 2030C3125 2050 3130 2060 3125 2085M3080 2055C3050 2095 3060 2130 3110 2135M3075 2065L3120 2110M3090 2260L3105 2260"></path>
 </g>
</g><g id="l228wUkFrmfYO" fill="none" stroke="rgb(25,21,22)" stroke-width="10" style="transform: none;"></g></svg>